<svg xmlns="http://www.w3.org/2000/svg" width="20.545" height="18" viewBox="0 0 20.545 18">
    <defs>
        <style>
            .cls-1{fill:#191919}
        </style>
    </defs>
    <g id="그룹_41" transform="translate(-619.534 -330.843)">
        <path id="패스_47" d="M625.775 332.764c1.743 0 3.485-.006 5.227.006a.573.573 0 0 0 .615-.381 2.669 2.669 0 0 1 4.815-.056.674.674 0 0 0 .737.439c.675-.028 1.353-.012 2.03-.007.569 0 .907.271.926.717s-.349.79-.917.8c-.71.015-1.421.017-2.131 0a.552.552 0 0 0-.607.378 2.525 2.525 0 0 1-2.428 1.532 2.491 2.491 0 0 1-2.393-1.5.628.628 0 0 0-.7-.407q-5.075.011-10.15 0a3.2 3.2 0 0 1-.555-.029.743.743 0 0 1-.656-.82.7.7 0 0 1 .754-.669c.93-.012 1.861 0 2.791-.005zm9.406.787a1.158 1.158 0 1 0-1.188 1.118 1.122 1.122 0 0 0 1.189-1.118z" class="cls-1" transform="translate(-0.046 0)"/>
        <path id="패스_48" d="M633.494 393.522h-5.532a.516.516 0 0 0-.577.339 2.669 2.669 0 0 1-4.842.057.585.585 0 0 0-.649-.4 13.243 13.243 0 0 1-1.521-.01c-.565-.036-.862-.349-.836-.815.024-.428.35-.694.886-.716a4.1 4.1 0 0 1 .558 0 1.789 1.789 0 0 0 1.933-.877 2.588 2.588 0 0 1 4.386.43.746.746 0 0 0 .777.453c3.569-.015 7.139-.009 10.708-.009.152 0 .3-.006.457 0a.79.79 0 0 1 .834.721c.029.431-.273.753-.8.8-.335.033-.676.021-1.014.021q-2.382.008-4.768.006zm-7.4-.778a1.173 1.173 0 1 0-1.156 1.172 1.191 1.191 0 0 0 1.162-1.172z" class="cls-1" transform="translate(0 -53.205)"/>
        <path id="패스_49" d="M624.285 457.607h3.451a.529.529 0 0 0 .583-.345 2.536 2.536 0 0 1 2.405-1.565 2.5 2.5 0 0 1 2.434 1.513.607.607 0 0 0 .652.4c1.911-.015 3.823-.011 5.734-.005.557 0 .9.292.915.738s-.337.755-.883.757c-1.911 0-3.823.009-5.734-.005a.625.625 0 0 0-.685.418 2.665 2.665 0 0 1-4.788.009.668.668 0 0 0-.737-.427q-3.374.021-6.749 0a1.069 1.069 0 0 1-.731-.221.858.858 0 0 1-.154-.769 1.04 1.04 0 0 1 .736-.477c1.182-.049 2.366-.021 3.551-.021zm6.467 1.907a1.166 1.166 0 1 0-.021-2.331 1.166 1.166 0 1 0 .021 2.331z" class="cls-1" transform="translate(-0.38 -112.171)"/>
    </g>
</svg>
